<svg xmlns="http://www.w3.org/2000/svg" id="Livello_1" data-name="Livello 1" viewBox="0 0 300 80"><defs><style>.cls-1{fill:#111;}</style></defs><path class="cls-1" d="M0,5.17H58.56V28.49H55.17a24.32,24.32,0,0,0-2.93-11.61C48.83,11,42,9.68,42,9.68H35V75.5H23V9.69H0Z"/><path class="cls-1" d="M110.47,52.51l0,16.1a1.37,1.37,0,0,0,0,.19,7.15,7.15,0,0,0,1,2.65,6.84,6.84,0,0,0,2.59,2.17,4.33,4.33,0,0,0,2.06.5h3.74c6.21,0,9.4-5.61,9.4-5.61l3.14,2.23c-2.57,4.47-10.06,5.9-11.84,6.19a5.81,5.81,0,0,1-.72,0h-4.46C101.6,77,98.39,62.35,98,59a9.83,9.83,0,0,1-.09-1.19V53.17C97.86,40,110.58,35,114.15,34a8.09,8.09,0,0,1,1.67-.26h5.42c5.37,0,9.21,3,11.78,6.17l-3.38,2.73s-4.23-6.43-8.61-6.43H117a3.72,3.72,0,0,0-.74.08,7.65,7.65,0,0,0-5.4,4.42,5,5,0,0,0-.38,2Z"/><path class="cls-1" d="M90.84,49.52a10.9,10.9,0,0,0-1.13-4.89c-2-3.91-6.62-10.85-14.77-10.85H69.51a8.37,8.37,0,0,0-1.67.26c-3.58.87-16.29,6-16.29,19.13v4.65a9.09,9.09,0,0,0,.1,1.19c.44,3.34,3.65,18,17.5,18h4.47a5.65,5.65,0,0,0,.71,0c1.78-.29,9.28-1.72,11.84-6.19L83,68.51s-3.19,5.61-9.4,5.61H69.89a4.35,4.35,0,0,1-2.06-.5,6.91,6.91,0,0,1-2.59-2.17,7.34,7.34,0,0,1-1-2.65,1.28,1.28,0,0,1,0-.19l0-16.1H90.84Zm-11.92,0H64.1v-7a5.87,5.87,0,0,1,4.94-6h4.2c5.54,0,5.68,6,5.68,6Z"/><path class="cls-1" d="M228.19,49.52a10.91,10.91,0,0,0-1.14-4.89c-2-3.91-6.61-10.85-14.77-10.85h-5.43a8.51,8.51,0,0,0-1.67.26c-3.56.91-16.28,6-16.28,19.13v4.65A8.36,8.36,0,0,0,189,59c.43,3.34,3.65,18,17.5,18H211a5.52,5.52,0,0,0,.71,0c1.79-.29,9.28-1.72,11.84-6.19l-3.14-2.23s-3.18,5.61-9.4,5.61h-3.74a4.38,4.38,0,0,1-2.06-.5,6.89,6.89,0,0,1-2.58-2.17,7.44,7.44,0,0,1-1-2.65,1.28,1.28,0,0,1,0-.19l-.05-16.1h26.69Zm-11.92,0H201.44v-7a5.87,5.87,0,0,1,4.95-6h4.2c5.54,0,5.68,6,5.68,6Z"/><path class="cls-1" d="M142,75.52h11v-71S149.27,5.74,135,6V8.56h7Z"/><path class="cls-1" d="M237.08,75.52h11v-71s-3.74,1.18-18,1.43V8.56h7Z"/><path class="cls-1" d="M263.05,75.52h11v-71s-3.75,1.18-18,1.43V8.56h7Z"/><polygon class="cls-1" points="174.01 34.59 179.97 34.59 166.05 48.52 187.95 75.52 174.04 75.52 155.41 52.77 174.01 34.59"/><circle class="cls-1" cx="292.5" cy="68.52" r="7.5"/><path class="cls-1" d="M292.13,18.12a7.55,7.55,0,1,1,7.55-7.55A7.56,7.56,0,0,1,292.13,18.12Zm0-14.1a6.55,6.55,0,1,0,6.55,6.55A6.56,6.56,0,0,0,292.13,4Z"/><path class="cls-1" d="M295.78,14.41h-1.34L292,11.31h-1.18v3.1h-1V6.62h2a6.89,6.89,0,0,1,1.12.08,2.19,2.19,0,0,1,.86.34,2,2,0,0,1,.65.67,2.15,2.15,0,0,1,.23,1,2.29,2.29,0,0,1-.43,1.43A2.53,2.53,0,0,1,293,11Zm-2.24-5.6a1.46,1.46,0,0,0-.12-.6,1,1,0,0,0-.37-.43,1.45,1.45,0,0,0-.51-.21,3.77,3.77,0,0,0-.73-.06h-1v2.94h.91a3.34,3.34,0,0,0,.8-.08,1.21,1.21,0,0,0,.6-.32,1.36,1.36,0,0,0,.33-.52A2,2,0,0,0,293.54,8.81Z"/></svg>